<svg width="42" height="43" viewBox="0 0 42 43" fill="none" xmlns="http://www.w3.org/2000/svg">
<path fill-rule="evenodd" clip-rule="evenodd" d="M1.05485 42.5707H0.923174C0.923174 42.4994 0.890195 42.3921 0.890195 42.3561C0.890195 42.3206 0.890195 42.2494 0.791258 42.2494H0.593384V42.5707H0.494447V41.8203H0.791258C0.923174 41.8203 1.02187 41.8563 1.02187 41.9988C1.02187 42.1061 0.988893 42.1421 0.956153 42.1773C0.989132 42.2134 1.02187 42.2491 1.02187 42.3206V42.4634C1.02187 42.4994 1.02187 42.4994 1.05485 42.4994V42.5707ZM0.923174 42.0348C0.923174 41.9276 0.857216 41.9276 0.824237 41.9276H0.593384V42.1421H0.791258C0.857216 42.1421 0.923174 42.1061 0.923174 42.0348V42.0348ZM1.48358 42.1776C1.48358 41.749 1.15403 41.3912 0.7253 41.3912C0.32979 41.3912 0 41.749 0 42.1776C0 42.6422 0.32979 43 0.7253 43C1.15379 42.9997 1.48358 42.6422 1.48358 42.1776ZM1.38464 42.1776C1.38464 42.5709 1.08807 42.8567 0.7253 42.8567C0.36253 42.8567 0.0989371 42.5707 0.0989371 42.1776C0.0989371 41.8203 0.362769 41.4985 0.7253 41.4985C1.08783 41.4985 1.38464 41.8203 1.38464 42.1776ZM42 27.7373C42 28.8098 41.3736 29.3096 40.2526 29.3096H38.1101V28.2372H40.2526C40.4505 28.2372 40.6154 28.2017 40.6816 28.1304C40.7473 28.0586 40.8132 27.9514 40.8132 27.8086C40.8132 27.6653 40.7475 27.5225 40.6816 27.4513C40.6154 27.3795 40.4837 27.344 40.2858 27.344C39.2642 27.308 37.9782 27.3795 37.9782 25.807C37.9782 25.0919 38.4067 24.3055 39.5605 24.3055H41.7691V25.3779H39.7252C39.5278 25.3779 39.3956 25.3779 39.2967 25.4492C39.1977 25.5564 39.132 25.6637 39.132 25.8425C39.132 26.0213 39.231 26.1285 39.3626 26.2003C39.4948 26.2358 39.6267 26.2716 39.7916 26.2716H40.3847C41.0111 26.2716 41.4069 26.4143 41.6707 26.6649C41.8681 26.9149 42 27.237 42 27.7373V27.7373ZM37.3516 26.6649C37.0878 26.4143 36.692 26.2716 36.0657 26.2716H35.4725C35.3079 26.2716 35.1757 26.2356 35.0441 26.2003C34.9119 26.1285 34.8134 26.0213 34.8134 25.8425C34.8134 25.6637 34.8462 25.5564 34.9781 25.4492C35.077 25.3779 35.2087 25.3779 35.4066 25.3779H37.4506V24.3055H35.2419C34.0549 24.3055 33.6592 25.0919 33.6592 25.807C33.6592 27.3793 34.9451 27.308 35.9672 27.344C36.1646 27.344 36.2968 27.3795 36.3625 27.4513C36.4282 27.5225 36.4947 27.6653 36.4947 27.8086C36.4947 27.9514 36.4285 28.0586 36.3625 28.1304C36.2636 28.2017 36.1319 28.2372 35.934 28.2372H33.7911V29.3096H35.934C37.0546 29.3096 37.6812 28.8095 37.6812 27.7373C37.6812 27.237 37.5495 26.9149 37.3516 26.6649V26.6649ZM33.1317 28.2734H30.5278V27.2725H33.066V26.2721H30.5278V25.3424H33.1317V24.306H29.4398V29.3099H33.1317V28.2734ZM28.2528 24.5563C27.89 24.3417 27.4615 24.3057 26.9011 24.3057H24.3629V29.3096H25.4835V27.4868H26.6705C27.0658 27.4868 27.2968 27.5228 27.4617 27.7013C27.6596 27.9514 27.6596 28.3804 27.6596 28.7022V29.3096H28.7472V28.3444C28.7472 27.8798 28.7145 27.6653 28.5826 27.4153C28.4836 27.272 28.2862 27.0935 28.0224 26.9862C28.3187 26.8794 28.8136 26.4504 28.8136 25.6637C28.8134 25.0921 28.6155 24.7703 28.2528 24.5563V24.5563ZM21.9891 24.3057H18.4616L17.044 25.95L15.6923 24.3057H11.2418V29.3096H15.6266L17.0442 27.6653L18.3959 29.3096H20.5388V27.6301H21.9234C22.8793 27.6301 23.8357 27.344 23.8357 25.95C23.8355 24.5918 22.8463 24.3057 21.9891 24.3057ZM27.3626 26.3791C27.1979 26.4504 27.033 26.4504 26.8351 26.4504L25.4835 26.4864V25.3422H26.8351C27.033 25.3422 27.2309 25.3422 27.3626 25.4494C27.4947 25.5212 27.5932 25.664 27.5932 25.8785C27.5932 26.093 27.4947 26.2718 27.3626 26.3791V26.3791ZM21.9891 26.6291H20.5385V25.3422H21.9891C22.3849 25.3422 22.6485 25.5212 22.6485 25.95C22.6485 26.3791 22.3846 26.6291 21.9891 26.6291ZM17.7363 26.8077L19.4505 24.8421V28.881L17.7363 26.8077ZM15.0659 28.2734H12.3296V27.2725H14.7691V26.2721H12.3296V25.3424H15.0989L16.3187 26.8079L15.0659 28.2734V28.2734ZM38.9339 20.6956H37.3516L35.2747 16.9424V20.6956H33.0333L32.6043 19.5874H30.2967L29.8683 20.6956H28.5823C28.0549 20.6956 27.3626 20.5526 26.9673 20.1235C26.6045 19.6947 26.4067 19.1228 26.4067 18.2292C26.4067 17.4785 26.5056 16.7994 26.9998 16.2633C27.3293 15.87 27.923 15.6915 28.681 15.6915H29.7359V16.7639H28.681C28.2857 16.7639 28.0546 16.8354 27.824 17.05C27.6262 17.2645 27.5272 17.6576 27.5272 18.1937C27.5272 18.7298 27.6262 19.1231 27.824 19.3734C27.9887 19.5519 28.2857 19.6234 28.5821 19.6234H29.0768L30.659 15.6917H32.3075L34.1536 20.4098V15.6915H35.868L37.8131 19.1586V15.6915H38.9337V20.6956H38.9339V20.6956ZM25.8462 15.6915H24.7257V20.6956H25.8462V15.6915V15.6915ZM23.5055 15.906C23.1427 15.6915 22.7474 15.6915 22.187 15.6915H19.6483V20.6956H20.7362V18.8725H21.9229C22.3187 18.8725 22.5825 18.9083 22.7472 19.0871C22.945 19.3374 22.9118 19.7664 22.9118 20.0522V20.6956H24.0324V19.6947C24.0324 19.2659 23.9997 19.0513 23.835 18.801C23.7361 18.658 23.5382 18.4792 23.3076 18.3722C23.6039 18.2292 24.0988 17.8361 24.0988 17.0497C24.0991 16.4779 23.868 16.1561 23.5055 15.906ZM18.8571 19.6592H16.2857V18.6583H18.8241V17.6218H16.2857V16.7282H18.8571V15.6917H15.1649V20.6959H18.8571V19.6592ZM14.3406 15.6915H12.5275L11.1758 19.0871L9.72523 15.6915H7.94508V20.4095L6.06599 15.6915H4.41776L2.43973 20.6956H3.6265L4.05499 19.5874H6.36257L6.79105 20.6956H9.03291V16.7639L10.6482 20.6956H11.6041L13.2196 16.7639V20.6956H14.3404V15.6915H14.3406ZM32.2091 18.5152L31.4505 16.5494L30.6925 18.5152H32.2091ZM22.6485 17.7291C22.4838 17.8364 22.3189 17.8364 22.0881 17.8364H20.7362V16.7284H22.0878C22.2857 16.7284 22.5161 16.7284 22.6482 16.7999C22.7799 16.9072 22.8461 17.0502 22.8461 17.2645C22.8461 17.4788 22.7802 17.6573 22.6485 17.7291V17.7291ZM4.4505 18.5152L5.20878 16.5494L5.96706 18.5152H4.4505V18.5152ZM41.7364 0H2.40651V18.0149L3.75818 14.6908H6.62616L7.02191 15.513V14.6908H10.3846L11.1429 16.4779L11.8682 14.6908H22.5825C23.0767 14.6908 23.5052 14.7981 23.8352 15.0839V14.6908H26.7692V15.0839C27.2634 14.7978 27.8898 14.6908 28.6153 14.6908H32.8679L33.2637 15.513V14.6908H36.3955L36.8572 15.513V14.6908H39.9228V21.6965H36.8242L36.2311 20.6243V21.6965H32.3737L31.9452 20.5528H30.9888L30.5603 21.6965H28.5496C27.7583 21.6965 27.1647 21.482 26.7694 21.2677V21.6965H21.9891V20.088C21.9891 19.8735 21.9562 19.8377 21.8242 19.8377H21.6596V21.6963H12.4286V20.8026L12.099 21.6963H10.154L9.82441 20.8384V21.6963H6.09897L5.70346 20.5526H4.74731L4.31882 21.6963H2.40651V42.821H41.7364V29.9887C41.3079 30.2033 40.7143 30.3105 40.1209 30.3105H37.2527V29.8814C36.9231 30.1678 36.3295 30.3105 35.7694 30.3105H26.7362V28.7022C26.7362 28.4877 26.7035 28.4877 26.5383 28.4877H26.3737V30.3105H23.4065V28.4162C22.9123 28.6662 22.3517 28.6662 21.8572 28.6662H21.5274V30.3105H17.9012L17.0442 29.2381L16.0883 30.3105H10.2527V23.3051H16.1867L17.044 24.377L17.9671 23.3051H21.9562C22.4174 23.3051 23.1759 23.3763 23.5055 23.7336V23.3051H27.0658C27.4285 23.3051 28.1211 23.3763 28.5823 23.7336V23.3051H33.956V23.7339C34.2528 23.4478 34.8134 23.3053 35.3076 23.3053H38.3075V23.7339C38.6376 23.4838 39.0988 23.3053 39.6924 23.3053H41.7364V0V0Z" fill="#E8E8E8"/>
</svg>
