<svg width="42" height="42" viewBox="0 0 42 42" fill="none" xmlns="http://www.w3.org/2000/svg">
<path d="M0 15.2181V30.436L0.378015 30.2527C1.84807 29.5717 5.29221 28.2096 6.93028 27.6596C18.7887 23.7831 29.3312 24.857 39.8456 30.9861L41.8197 32.1385L41.9177 28.6025C42.0297 24.0712 42.0297 16.9992 41.9037 7.5174L41.8197 9.48757e-05H20.9028H0V15.2181ZM22.7929 8.80085C24.277 9.37708 25.467 10.5034 26.5171 12.3107C27.3711 13.8298 28.1551 16.1086 28.4351 17.8635L28.5471 18.6755L27.3851 18.4921C22.4149 17.7326 20.0628 17.654 16.1286 18.0993C14.7146 18.2564 13.5245 18.3088 13.4685 18.2302C13.3425 17.9683 14.0986 15.2181 14.7426 13.6727C15.3446 12.1797 16.6467 10.2938 17.5707 9.56043C19.0548 8.38176 21.0008 8.11983 22.7929 8.80085Z" fill="#EEEEEE"/>
<path d="M10.8225 37.9795L9.40845 41.9084H9.92647C10.3745 41.9084 10.4725 41.7775 10.8085 40.7298L11.2005 39.5511H12.7266H14.2666L14.7007 40.7298C15.0787 41.7513 15.2047 41.9084 15.6107 41.9084C15.8767 41.9084 16.1007 41.8299 16.0867 41.6989C16.0867 41.5941 15.4427 39.8654 14.6587 37.8486C13.3286 34.4435 13.1886 34.1816 12.7266 34.103C12.2366 34.0244 12.2366 34.0506 10.8225 37.9795ZM13.2866 36.7485C13.5946 37.6652 13.8606 38.4772 13.8606 38.582C13.8606 38.6867 13.3286 38.7653 12.6706 38.7653H11.4805L12.0826 36.9318C12.4046 35.9365 12.6846 35.0983 12.6846 35.0983C12.6986 35.0983 12.9646 35.8317 13.2866 36.7485Z" fill="#EEEEEE"/>
<path d="M25.3409 36.5913C25.1029 36.9056 24.9908 36.9318 24.9488 36.7223C24.9208 36.5389 24.7108 36.408 24.4868 36.408H24.0808V39.1582V41.9084H24.5708H25.0608V39.9702C25.0608 37.6128 25.2289 37.1938 26.1109 37.1938C26.7409 37.1938 27.0629 36.7747 26.7269 36.3818C26.4049 36.0151 25.7049 36.1199 25.3409 36.5913Z" fill="#EEEEEE"/>
<path d="M29.3311 36.3817C28.701 36.696 28.281 37.1675 28.281 37.5866C28.281 38.1366 28.981 38.0842 29.1911 37.5342C29.3031 37.2461 29.6391 37.0627 30.1991 36.9841C31.1231 36.8532 31.6411 37.1937 31.6411 37.9533C31.6411 38.3462 31.4871 38.4509 30.9131 38.6081C30.5071 38.6867 29.9611 38.7652 29.7231 38.7652C29.4711 38.7652 29.009 38.9486 28.715 39.1843C27.847 39.8391 27.791 41.044 28.589 41.6726C29.135 42.0917 30.4371 42.0917 31.1231 41.6726C31.5291 41.4107 31.7112 41.4107 31.8232 41.6202C31.9072 41.7774 32.1452 41.9084 32.3412 41.9084C32.7052 41.9084 32.7052 41.9084 32.6492 39.9963C32.5932 37.4556 32.5232 37.0103 32.1872 36.6436C31.8092 36.2769 29.8911 36.0936 29.3311 36.3817ZM31.3611 40.6511C30.7731 41.5417 29.2051 41.5679 29.023 40.7035C28.883 40.0225 29.2191 39.7082 30.4231 39.4201C31.5151 39.1581 31.5711 39.1581 31.6131 39.6558C31.6411 39.9701 31.5431 40.3892 31.3611 40.6511Z" fill="#EEEEEE"/>
<path d="M17.6409 38.4509C17.6409 40.9916 17.8089 41.4893 18.7609 41.8822C19.5029 42.1703 20.595 41.9084 20.959 41.3321C21.099 41.1226 21.141 41.175 21.141 41.4893C21.141 41.7774 21.267 41.9084 21.561 41.9084H21.981V39.1581V36.4079H21.491H21.001V38.3723C21.001 40.1011 20.973 40.363 20.693 40.7035C19.993 41.5155 18.9009 41.4107 18.5929 40.5202C18.5369 40.3368 18.4809 39.3415 18.4809 38.2938V36.4079H18.0609H17.6409V38.4509Z" fill="#EEEEEE"/>
</svg>
