<svg width="70" height="21" viewBox="0 0 70 21" fill="none" xmlns="http://www.w3.org/2000/svg">
<path fill-rule="evenodd" clip-rule="evenodd" d="M0 0.999129H3.04376C3.61135 0.999129 4.17857 1.08686 4.69415 1.21847C7.37648 1.87588 9.49158 4.28679 9.49158 10.6854C9.49158 17.0407 7.37648 19.4942 4.69415 20.1078C4.17857 20.2394 3.61097 20.2826 3.04376 20.2826H0V0.999129ZM69.0201 3.9352C69.4324 3.9352 69.7422 3.4094 69.7422 2.62039C69.7422 1.83201 69.4324 1.26171 69.0201 1.26171C68.607 1.26171 68.2972 1.83137 68.2972 2.62039C68.2972 3.4094 68.607 3.9352 69.0201 3.9352ZM69.0201 0.955259C69.1488 0.955176 69.2762 0.998187 69.3951 1.08184C69.5141 1.16549 69.6221 1.28814 69.7131 1.44278C69.8041 1.59742 69.8763 1.78101 69.9255 1.98307C69.9747 2.18513 70.0001 2.4017 70 2.62039C70.0001 2.83913 69.9748 3.05576 69.9256 3.2579C69.8764 3.46003 69.8042 3.6437 69.7132 3.79841C69.6222 3.95312 69.5142 4.07582 69.3952 4.15951C69.2763 4.2432 69.1488 4.28624 69.0201 4.28616C68.8914 4.28616 68.7639 4.24307 68.645 4.15938C68.5261 4.07568 68.4181 3.95301 68.3271 3.79836C68.236 3.6437 68.1639 3.4601 68.1146 3.25804C68.0653 3.05598 68.04 2.83942 68.04 2.62071C68.04 2.402 68.0653 2.18543 68.1146 1.98337C68.1639 1.7813 68.236 1.5977 68.3271 1.44305C68.4181 1.2884 68.5261 1.16573 68.645 1.08203C68.7639 0.998335 68.8914 0.955259 69.0201 0.955259V0.955259ZM69.0201 2.8836L68.9681 2.752H68.8394V3.54101H68.6325V1.65653H69.071C69.3288 1.65653 69.484 1.83201 69.484 2.2262C69.484 2.53265 69.3546 2.70813 69.1742 2.752L69.484 3.54101H69.2517L69.0201 2.8836ZM69.0201 1.91975H69.0455C69.1484 1.91975 69.2517 1.96362 69.2517 2.18297C69.2517 2.44618 69.1488 2.48941 69.0455 2.48941H68.8397V1.91975H69.0201ZM61.8498 9.19445C62.701 9.01897 63.3969 8.40543 63.3969 6.56482C63.3969 4.81195 62.7014 4.32939 61.8498 4.11068H60.3019V9.28282H61.024C61.308 9.28282 61.5916 9.23831 61.8498 9.19445V9.19445ZM61.8498 1.043C63.8616 1.17461 65.7185 1.87588 65.7185 6.25837C65.7185 8.53767 64.8673 10.4221 63.4489 10.7286C64.0423 10.8602 64.4034 11.8686 64.6095 12.7453L66.3898 20.2826H63.9132L62.5723 14.235C62.3661 13.3582 62.1858 12.8318 61.8501 12.5253C61.6698 12.3505 61.3862 12.2621 61.0244 12.2621H60.3023V20.2826H58.0843V0.999129H60.4826C60.9207 0.999129 61.4113 0.999129 61.8498 1.043ZM41.19 6.78417C41.4478 7.9235 41.5765 9.19508 41.5765 10.6415C41.5765 12.0002 41.4478 13.315 41.19 14.4982C40.3905 18.222 38.4561 20.6336 35.7999 20.6336C32.2406 20.6336 29.9706 16.5136 29.9706 10.6409C29.9706 4.72357 32.2919 0.692042 35.7999 0.692042C38.4561 0.692042 40.3905 3.05908 41.19 6.78417V6.78417ZM41.19 2.70813L45.1108 20.2826H45.9358L50.2947 0.999129H47.9731L45.6522 11.1667L43.1764 0.999129H40.8035L41.19 2.70813V2.70813ZM50.8623 0.999129H57.4647V4.11068H53.1058V8.84412H57.0774V11.8234H53.1061V17.2588H57.4909V20.2826H50.8627V0.999129H50.8623V0.999129ZM4.69415 4.41776C4.30728 4.19842 3.89458 4.11068 3.48226 4.11068H2.21837V17.2588H3.48226C3.89496 17.2588 4.30765 17.1272 4.69415 16.9085C6.06132 16.0749 7.17032 13.9279 7.17032 10.6847C7.17069 7.44157 6.06132 5.20614 4.69415 4.41776V4.41776ZM10.3686 0.999129H12.6124V20.2826H10.3686V0.999129ZM19.8085 6.12676C19.0348 5.29388 18.2098 4.461 17.3328 4.28616C16.5332 4.11068 15.682 4.50487 15.682 6.43321C15.682 9.76411 20.5827 8.36156 20.5827 14.8046C20.5827 19.0117 18.6225 21.0716 16.3787 20.6336C15.1664 20.4136 14.4701 19.8 13.5156 18.7052V14.7601C14.2639 15.462 15.3726 16.8201 16.2496 17.0833C17.204 17.3465 18.2356 16.8633 18.2356 15.1111C18.2356 11.386 13.3611 12.9195 13.3611 6.56419C13.3611 2.26943 15.2697 0.691406 17.2299 0.691406C18.2101 0.691406 19.061 1.30494 19.8089 2.44427V6.12676H19.8085V6.12676ZM29.403 18.3543C28.8354 19.5826 27.4944 20.2826 26.5916 20.4142C23.1097 20.809 20.7885 17.522 20.7885 10.9918C20.7885 4.41776 22.8261 0.56107 26.5916 0.912025C27.3395 0.955894 28.5518 1.39395 29.3514 2.53328V6.21514C28.3969 5.20741 27.417 4.50614 26.5916 4.46227C24.2962 4.33066 23.1097 6.7848 23.1097 10.7292C23.1097 14.6743 24.2187 16.8646 26.5916 16.6898C27.5199 16.6465 28.9129 15.3749 29.403 14.6743V18.3543V18.3543Z" fill="white"/>
</svg>
