<svg width="104" height="26" viewBox="0 0 104 26" fill="none" xmlns="http://www.w3.org/2000/svg">
<path d="M47.1183 5.77365C47.1692 5.58228 47.2201 5.37705 47.9448 5.37705C50.1943 5.37705 50.626 7.05914 50.626 8.44095C50.626 9.27507 50.2066 13.4879 46.2035 13.4879C45.6063 13.4879 45.301 13.406 45.301 12.9546C45.301 12.7356 45.4666 12.1337 45.5806 11.6824L47.1183 5.77365V5.77365ZM44.7933 5.18505C45.4414 5.23982 45.7719 5.30843 45.7719 5.77365C45.7719 6.0475 45.6701 6.47117 45.6321 6.62162L44.0692 12.6676C43.8534 13.5155 43.6627 13.5565 43.0398 13.6792V13.8983H46.255C49.9913 13.8983 52.0373 11.3676 52.0373 8.60525C52.0373 7.16931 51.2495 4.9666 48.3267 4.9666H44.7939V5.18505H44.7933ZM54.667 12.4894C54.1716 13.2965 53.6125 14.0488 52.9006 14.0488C52.3035 14.0488 52.3035 13.4469 52.3035 13.2008C52.3035 12.558 53.3071 9.16553 53.3071 8.78278C53.3071 8.49572 53.2054 8.4271 52.5064 8.4271V8.20803C52.9895 8.18096 54.0441 7.96188 54.5395 7.86619L54.5776 7.89326L53.4592 12.2974C53.4083 12.4888 53.2557 13.0359 53.2557 13.2002C53.2557 13.2958 53.3446 13.4054 53.4592 13.4054C53.6119 13.4054 53.9804 13.1315 54.5015 12.3383L54.667 12.4894V12.4894ZM54.4132 6.40255C54.0956 6.40255 53.8031 6.16962 53.8031 5.69119C53.8031 5.21275 54.0956 4.95275 54.4003 4.95275C54.8197 4.95275 55.0355 5.40412 55.0355 5.70504C55.0355 5.97825 54.832 6.40255 54.4132 6.40255V6.40255ZM60.602 12.4756C59.9668 13.3922 59.5217 14.0211 58.8356 14.0211C58.2507 14.0211 58.2256 13.6106 58.2256 13.214C58.2256 12.886 59.1661 9.54829 59.1661 9.00123C59.1661 8.75508 59.0901 8.5637 58.8485 8.5637C58.2385 8.5637 57.4377 9.74029 56.9803 10.5058C56.396 11.4494 56.2305 12.0381 55.7099 13.8977H54.7571C55.1508 12.3522 56.0024 9.15168 56.0024 8.86399C56.0024 8.65877 55.8754 8.50831 55.1894 8.50831V8.28923C55.8754 8.15263 56.5615 8.01602 57.2482 7.86557L57.2862 7.89263L56.4726 10.7513L56.4978 10.7784C57.095 9.7661 58.2642 7.86494 59.3188 7.86494C59.9037 7.86494 60.1955 8.19292 60.1955 8.76767C60.1955 9.35565 59.179 12.7343 59.179 13.1448C59.179 13.35 59.3568 13.3777 59.3825 13.3777C59.6369 13.3777 59.9546 12.9402 60.4248 12.2968L60.602 12.4756V12.4756ZM62.2286 10.451C62.6989 9.23352 63.5628 8.18096 64.2495 8.18096C64.5671 8.18096 64.694 8.44095 64.694 8.72801C64.694 8.83755 64.6308 10.4787 62.0128 11.0535L62.2286 10.451V10.451ZM64.8461 12.407C64.2109 12.9679 63.6769 13.4331 62.9908 13.4331C62.4568 13.4331 61.7964 13.1183 61.7964 12.1879C61.7964 11.914 61.8602 11.6408 61.9233 11.3538L62.2789 11.299C64.3378 10.9842 65.5322 9.87627 65.5322 8.796C65.5322 8.19418 65.1379 7.86557 64.4899 7.86557C62.6983 7.86557 60.6904 10.1633 60.6904 12.1193C60.6904 12.9811 61.0969 14.0475 62.4316 14.0475C63.7026 14.0475 64.8589 12.7891 64.9987 12.57L64.8461 12.407V12.407ZM65.6217 13.8977L66.6511 9.90397C66.778 9.39783 66.854 8.93324 66.854 8.80985C66.854 8.61848 66.7909 8.40003 66.3967 8.40003C66.2569 8.40003 66.1171 8.44095 65.9773 8.46802V8.23572C66.6253 8.14004 67.3752 7.96188 67.9472 7.86619L67.9852 7.89326L67.3629 10.6153L67.3881 10.6424L67.4898 10.3686C67.9092 9.46582 68.8755 7.86557 69.6756 7.86557C69.9681 7.86557 70.2857 8.07079 70.2857 8.53538C70.2857 9.24674 69.8283 9.24674 69.6885 9.24674C69.1422 9.24674 69.3329 8.75445 69.0275 8.75445C68.6339 8.75445 67.8712 10.2729 67.7694 10.4781C67.2863 11.4627 67.1085 12.0783 66.5873 13.8977H65.6217V13.8977ZM69.637 11.9008C69.7259 12.5026 69.9295 13.7611 70.9589 13.7611C71.6701 13.7611 71.8737 13.1045 71.8737 12.6531C71.8737 11.7504 70.3617 10.4372 70.3617 9.38398C70.3617 8.96031 70.5395 7.86557 71.8865 7.86557C72.4586 7.86557 72.7124 8.09849 73.0938 8.09849C73.3102 8.09849 73.3862 7.96188 73.4494 7.85171H73.6272L73.3728 9.75351H73.1692C73.1061 8.97353 72.8007 8.18033 71.9748 8.18033C71.6953 8.18033 71.2888 8.30308 71.2888 8.97353C71.2888 9.83534 72.8388 11.0528 72.8388 12.2149C72.8388 13.7057 71.6567 14.0481 70.9454 14.0481C70.5641 14.0481 70.0558 13.7881 69.6873 13.7881C69.5095 13.7881 69.4586 13.9247 69.3826 14.0758H69.179L69.4335 11.9008H69.637V11.9008ZM84.1373 7.49666C84.1121 7.11391 83.9975 5.28074 82.1802 5.28074C79.6388 5.28074 78.3421 8.59078 78.3421 10.6015C78.3421 12.3937 79.041 13.5288 80.5536 13.5288C81.9895 13.5288 82.8792 12.5574 83.4892 11.9147L83.705 12.106C83.2348 12.7079 82.1036 14.1438 80.2483 14.1438C78.7737 14.1438 76.919 13.1863 76.919 10.451C76.919 7.81142 79.168 4.78845 82.0784 4.78845C82.9932 4.78845 83.7688 5.11643 84.0607 5.11643C84.4292 5.11643 84.5052 4.95212 84.5689 4.81552H84.8357L84.3654 7.53758L84.1373 7.49666ZM86.4751 12.3383C85.8271 13.3915 85.3311 14.0481 84.5432 14.0481C83.984 14.0481 83.9332 13.5829 83.9332 13.2002C83.9332 12.9125 85.7762 5.77302 85.7762 5.48596C85.7762 5.13091 85.2422 5.13091 84.9117 5.14413V4.92505C85.5726 4.84321 86.2336 4.71983 86.8939 4.55615L86.9577 4.62414L85.0386 12.5436C85.0135 12.667 84.9117 13.0358 84.9117 13.1863C84.9117 13.2681 84.9117 13.4601 85.1024 13.4601C85.42 13.4601 85.6873 13.0774 86.3096 12.2149L86.4751 12.3383V12.3383ZM92.3464 12.4208C91.5456 13.6654 91.2152 14.0211 90.58 14.0211C90.0079 14.0211 89.9828 13.5149 89.9828 13.3097C89.9828 13.0635 90.2372 11.9147 90.5291 10.7929H90.4911C89.6266 12.3383 88.6866 14.0481 87.5426 14.0481C87.0852 14.0481 86.8436 13.8429 86.8436 13.2411C86.8436 12.6392 87.8093 9.19197 87.8093 8.82307C87.8093 8.42647 87.5677 8.42647 87.0472 8.42647V8.23572C87.6887 8.15223 88.3251 8.02885 88.9534 7.86619L88.9914 7.89326L87.8344 12.8583C87.7964 13.0359 87.8344 13.3229 88.1017 13.3229C88.648 13.3229 89.4488 12.0374 89.881 11.3261C90.5039 10.3138 90.7835 9.45197 91.2789 7.98832H92.2194L91.2158 12.0783C91.1397 12.3522 90.9742 12.954 90.9742 13.1592C90.9742 13.2272 90.9865 13.3783 91.1269 13.3783C91.3684 13.3783 91.724 12.8992 92.1691 12.2974L92.3464 12.4208V12.4208ZM96.9595 9.69874C96.9595 10.8476 95.7522 13.734 94.011 13.734C93.4138 13.734 93.4138 13.3783 93.4138 13.2826C93.4138 11.8467 94.6339 8.53601 96.0318 8.53601C96.8326 8.53601 96.9595 9.27507 96.9595 9.69874V9.69874ZM93.4267 5.10321C94.1637 5.11706 94.2526 5.18505 94.2526 5.49981C94.2526 5.69119 94.1385 6.03302 94.0496 6.4164L92.3212 13.2688V13.3235C92.3212 13.6245 93.2998 14.0488 93.9736 14.0488C95.9178 14.0488 98.0398 11.6824 98.0398 9.52121C98.0398 8.52279 97.4175 7.86619 96.5278 7.86619C95.3843 7.86619 94.5836 9.13846 94.1642 9.84919L94.1391 9.83598C94.5713 8.28986 95.1556 5.74595 95.4352 4.62477L95.3721 4.55678C94.7111 4.69339 94.0631 4.78908 93.4279 4.87154V5.10321H93.4267ZM43.0439 24.3371C43.6668 24.2137 43.8575 24.1728 44.0733 23.3248L45.6362 17.2788C45.7122 17.005 45.776 16.677 45.776 16.4309C45.776 15.9524 45.4332 15.9115 44.8863 15.8429V15.6238H48.0255V15.8429C47.4032 15.9663 47.1996 15.9934 46.9832 16.8552L45.4203 22.9144C45.3443 23.1882 45.2806 23.4614 45.2806 23.79C45.2806 24.2275 45.5982 24.2691 46.145 24.3371V24.5562H43.0439V24.3371V24.3371Z" fill="white"/>
<path d="M52.0527 21.4327C51.4311 22.2654 50.9964 22.8373 50.325 22.8373C49.7537 22.8373 49.7285 22.4644 49.7285 22.1041C49.7285 21.8061 50.6481 18.774 50.6481 18.277C50.6481 18.0534 50.5738 17.8795 50.3376 17.8795C49.7411 17.8795 48.9582 18.9484 48.511 19.6438C47.9391 20.5011 47.7778 21.0352 47.2683 22.7252H46.3367C46.7216 21.3212 47.5542 18.4131 47.5542 18.1523C47.5542 17.9659 47.4301 17.8292 46.7593 17.8292V17.6302C47.4301 17.5061 48.1009 17.3814 48.7723 17.2448L48.8095 17.2699L48.0146 19.8669L48.0392 19.892C48.6231 18.9724 49.7663 17.2453 50.7974 17.2453C51.3693 17.2453 51.6552 17.5438 51.6552 18.066C51.6552 18.6001 50.6613 21.6695 50.6613 22.0423C50.6613 22.2288 50.8352 22.2534 50.8603 22.2534C51.1091 22.2534 51.4196 21.8559 51.8789 21.272L52.0527 21.4327V21.4327ZM55.3702 17.8041H54.3265L53.2331 21.9417C53.2205 21.9789 53.2205 22.0034 53.2205 22.0412C53.2205 22.1527 53.2823 22.2522 53.4195 22.2522C53.6683 22.2522 54.1029 21.6683 54.4135 21.2709L54.5747 21.3578C53.9411 22.3146 53.4567 22.8613 52.8105 22.8613C52.5617 22.8613 52.214 22.7372 52.214 22.3643C52.214 22.1779 52.4502 21.4201 52.4999 21.2211L53.3944 17.8041H52.4748C52.4628 17.7297 52.4628 17.6674 52.4999 17.605C52.5743 17.4929 52.922 17.406 53.1336 17.2945C53.5436 17.0829 54.1401 16.5242 54.4878 16.089C54.5376 16.0272 54.5873 15.9151 54.6988 15.9403C54.7858 15.9151 54.8109 16.0272 54.7858 16.1267L54.4381 17.4066H55.432L55.3702 17.8041V17.8041ZM56.4757 19.5935C56.9355 18.4875 57.7808 17.5307 58.4516 17.5307C58.7621 17.5307 58.8868 17.7669 58.8868 18.0277C58.8868 18.1272 58.8245 19.6181 56.2652 20.1402L56.4757 19.5935V19.5935ZM59.0355 21.3704C58.4144 21.8799 57.8923 22.302 57.2215 22.302C56.6993 22.302 56.0537 22.016 56.0537 21.1713C56.0537 20.9226 56.1154 20.6744 56.1777 20.4136L56.5255 20.3638C58.5385 20.0779 59.7063 19.0714 59.7063 18.0894C59.7063 17.5427 59.3209 17.2442 58.6872 17.2442C56.9355 17.2442 54.9716 19.3316 54.9716 21.1084C54.9716 21.8914 55.3691 22.8601 56.6742 22.8601C57.9169 22.8601 59.0475 21.7169 59.1842 21.5185L59.0355 21.3704ZM60.042 22.7246L61.0485 19.0965C61.1726 18.6367 61.2476 18.2141 61.2476 18.1026C61.2476 17.9287 61.1852 17.7297 60.8003 17.7297C60.6637 17.7297 60.527 17.7669 60.3903 17.792V17.5804C61.0239 17.4935 61.7571 17.3317 62.3164 17.2448L62.3536 17.2699L61.7451 19.7428L61.7697 19.7674L61.8692 19.5186C62.2792 18.6985 63.2234 17.2442 64.0064 17.2442C64.2923 17.2442 64.6028 17.4306 64.6028 17.8532C64.6028 18.4995 64.1556 18.4995 64.0189 18.4995C63.4848 18.4995 63.6712 18.0523 63.3733 18.0523C62.9878 18.0523 62.2421 19.4317 62.1431 19.6181C61.6708 20.5125 61.4969 21.0718 60.9873 22.7246H60.042V22.7246Z" fill="white"/>
<path d="M69.5841 21.4327C68.963 22.2654 68.5278 22.8373 67.857 22.8373C67.2851 22.8373 67.2605 22.4644 67.2605 22.1041C67.2605 21.8061 68.1801 18.774 68.1801 18.277C68.1801 18.0534 68.1058 17.8795 67.8696 17.8795C67.2737 17.8795 66.4902 18.9484 66.043 19.6438C65.4717 20.5011 65.3098 21.0352 64.8003 22.7252H63.8687C64.2541 21.3212 65.0862 18.4131 65.0862 18.1523C65.0862 17.9659 64.9621 17.8292 64.2907 17.8292V17.6302C64.9615 17.5061 65.6329 17.3814 66.3038 17.2448L66.3409 17.2699L65.5454 19.8669L65.57 19.892C66.1539 18.9724 67.2971 17.2453 68.3288 17.2453C68.9007 17.2453 69.1861 17.5438 69.1861 18.066C69.1861 18.6001 68.1921 21.6695 68.1921 22.0423C68.1921 22.2288 68.366 22.2534 68.3912 22.2534C68.6399 22.2534 68.9505 21.8559 69.4103 21.272L69.5841 21.4327V21.4327Z" fill="white"/>
<path d="M70.5411 21.3704C70.5411 20.2518 71.6597 17.5187 73.1134 17.5187C73.4737 17.5187 73.822 17.7549 73.822 18.3514C73.822 19.5689 72.6045 22.2528 71.2868 22.2528C70.9511 22.2528 70.5411 22.0292 70.5411 21.3704ZM75.0516 21.3578C74.4923 21.9045 74.2435 22.2156 74.0576 22.2156C73.9581 22.2156 73.8838 22.1413 73.8838 22.0538C73.8838 21.6689 75.027 17.4312 75.0642 17.2825L74.9772 17.2453L74.2195 17.3323L74.1823 17.3694L74.0582 17.9167H74.0336C73.9965 17.5685 73.5864 17.2453 73.0523 17.2453C71.3995 17.2453 69.4985 19.5689 69.4985 21.3955C69.4985 21.7558 69.5357 22.8613 70.7784 22.8613C71.5242 22.8613 72.1824 22.4884 73.2135 20.9729L73.2381 20.9975C73.0391 21.7553 72.9773 22.0286 72.9773 22.3146C72.9773 22.5256 72.9773 22.8487 73.4995 22.8487C74.0336 22.8487 74.4563 22.4015 75.202 21.4819L75.0516 21.3578V21.3578ZM78.742 17.8041H77.6983L76.6048 21.9417C76.5923 21.9789 76.5923 22.0035 76.5923 22.0412C76.5923 22.1527 76.6546 22.2522 76.7913 22.2522C77.04 22.2522 77.4747 21.6683 77.7852 21.2709L77.9465 21.3578C77.3128 22.3146 76.8285 22.8613 76.1822 22.8613C75.9334 22.8613 75.5857 22.7372 75.5857 22.3643C75.5857 22.1779 75.8219 21.4201 75.8717 21.2211L76.7661 17.8041H75.8465C75.8345 17.7297 75.8345 17.6674 75.8717 17.6051C75.946 17.493 76.2937 17.406 76.5053 17.2945C76.9154 17.0829 77.5119 16.5242 77.8596 16.089C77.9093 16.0272 77.9591 15.9151 78.0712 15.9403C78.1581 15.9151 78.1827 16.0272 78.1581 16.1267L77.8104 17.4066H78.8043L78.742 17.8041ZM81.1279 21.4453C80.643 22.1785 80.0968 22.8619 79.4008 22.8619C78.8169 22.8619 78.8169 22.3151 78.8169 22.0915C78.8169 21.5076 79.7983 18.4263 79.7983 18.078C79.7983 17.8167 79.6988 17.7549 79.0154 17.7549V17.5559C79.4872 17.5313 80.5183 17.3323 81.0032 17.2453L81.0404 17.2705L79.947 21.2715C79.8972 21.4453 79.7479 21.9423 79.7479 22.0915C79.7479 22.1785 79.8349 22.278 79.947 22.278C80.0962 22.278 80.4565 22.0292 80.9655 21.3086L81.1279 21.4453ZM80.8791 15.9157C80.5686 15.9157 80.2827 15.7047 80.2827 15.2695C80.2827 14.8348 80.5686 14.5986 80.8666 14.5986C81.2766 14.5986 81.4876 15.0087 81.4876 15.282C81.4882 15.5302 81.2892 15.9157 80.8791 15.9157ZM85.1912 17.5061C85.7871 17.5061 86.061 18.0529 86.061 18.6991C86.061 20.0287 85.0797 22.6005 83.6631 22.6005C83.042 22.6005 82.6692 22.1533 82.6692 21.4447C82.6686 19.979 83.7992 17.5061 85.1912 17.5061V17.5061ZM85.2781 17.2448C83.4641 17.2448 81.6249 19.2458 81.6249 21.0719C81.6249 22.103 82.1842 22.8607 83.5013 22.8607C85.4022 22.8607 87.1047 20.6121 87.1047 19.0834C87.1042 18.2639 86.7193 17.2448 85.2781 17.2448V17.2448Z" fill="white"/>
<path d="M92.5219 21.4326C91.9008 22.2653 91.4656 22.8371 90.7948 22.8371C90.2229 22.8371 90.1983 22.4643 90.1983 22.104C90.1983 21.806 91.1179 18.7739 91.1179 18.2769C91.1179 18.0533 91.0435 17.8794 90.8073 17.8794C90.2109 17.8794 89.4279 18.9483 88.9807 19.6437C88.4088 20.501 88.2476 21.0351 87.738 22.7251H86.8064C87.1919 21.3211 88.0239 18.413 88.0239 18.1522C88.0239 17.9658 87.8999 17.8291 87.2285 17.8291V17.6301C87.8993 17.506 88.5707 17.3813 89.2415 17.2446L89.2787 17.2698L88.4832 19.8667L88.5078 19.8919C89.0917 18.9723 90.2349 17.2452 91.2666 17.2452C91.8385 17.2452 92.1238 17.5437 92.1238 18.0659C92.1238 18.6 91.1299 21.6693 91.1299 22.0422C91.1299 22.2287 91.3037 22.2532 91.3289 22.2532C91.5777 22.2532 91.8882 21.8558 92.348 21.2719L92.5219 21.4326V21.4326ZM93.7268 21.3702C93.7268 20.2516 94.8455 17.5186 96.2992 17.5186C96.6595 17.5186 97.0072 17.7548 97.0072 18.3512C97.0072 19.5688 95.7896 22.2527 94.4726 22.2527C94.1369 22.2527 93.7268 22.0291 93.7268 21.3702ZM98.2373 21.3577C97.678 21.9044 97.4293 22.2155 97.2434 22.2155C97.1439 22.2155 97.0695 22.1412 97.0695 22.0537C97.0695 21.6688 98.2128 17.4311 98.2499 17.2824L98.163 17.2452L97.4047 17.3321L97.3675 17.3693L97.2434 17.9166H97.2188C97.1816 17.5683 96.7716 17.2452 96.2374 17.2452C94.5847 17.2452 92.6837 19.5688 92.6837 21.3954C92.6837 21.7557 92.7209 22.8612 93.9636 22.8612C94.7088 22.8612 95.3676 22.4883 96.3987 20.9728L96.4233 20.9974C96.2243 21.7551 96.1625 22.0285 96.1625 22.3144C96.1625 22.5255 96.1625 22.8486 96.6841 22.8486C97.2188 22.8486 97.6409 22.4014 98.3866 21.4818L98.2373 21.3577V21.3577ZM101.058 21.3079C100.424 22.2647 99.9399 22.8612 99.1695 22.8612C98.6228 22.8612 98.573 22.4391 98.573 22.0908C98.573 21.83 100.374 15.3437 100.374 15.0829C100.374 14.7598 99.8524 14.7598 99.5292 14.7723V14.5733C100.181 14.4979 100.829 14.3858 101.468 14.2376L101.53 14.3L99.6533 21.4943C99.6287 21.6059 99.5292 21.9416 99.5292 22.0782C99.5292 22.1526 99.5292 22.327 99.7157 22.327C100.026 22.327 100.287 21.9793 100.896 21.1964L101.058 21.3079V21.3079ZM102.8 14.5179H102.928C103.046 14.5179 103.142 14.5768 103.142 14.754C103.142 14.9188 103.084 15.0366 102.931 15.0366H102.8V14.5179ZM102.453 14.5053C102.605 14.5207 102.602 14.5179 102.602 14.6545V15.3969C102.602 15.5301 102.605 15.5301 102.453 15.5461V15.5924H102.95V15.5461C102.795 15.5307 102.8 15.5307 102.8 15.3969V15.0926H102.946C103.142 15.3814 103.22 15.5924 103.319 15.5924H103.515V15.5644C103.455 15.521 103.363 15.4157 103.282 15.3036L103.105 15.0612C103.245 15.0148 103.35 14.8964 103.35 14.7386C103.35 14.5459 103.179 14.459 102.996 14.459H102.452V14.5053H102.453ZM104 15.0429C104 14.4555 103.543 13.9774 102.953 13.9774C102.813 13.977 102.674 14.0044 102.545 14.0579C102.416 14.1114 102.299 14.1899 102.201 14.289C102.102 14.3881 102.024 14.5058 101.971 14.6352C101.919 14.7646 101.892 14.9031 101.893 15.0429C101.893 15.6296 102.357 16.102 102.953 16.102C103.543 16.102 104 15.6296 104 15.0429ZM103.829 15.0429C103.829 15.5364 103.44 15.9716 102.953 15.9716C102.456 15.9716 102.064 15.5364 102.064 15.0429C102.064 14.5487 102.453 14.1078 102.953 14.1078C103.444 14.1078 103.829 14.5459 103.829 15.0429Z" fill="white"/>
<path d="M27.6051 25.9998C34.7132 26.0347 40.5419 20.2055 40.4921 13.1129C40.5413 5.82642 34.7132 -0.00228689 27.6051 6.73109e-07H13.3622C6.16899 -0.001715 0.340282 5.82642 0.248779 13.1129C0.340282 20.2055 6.16898 26.0342 13.3616 25.9998H27.6051V25.9998Z" fill="#5E5E5E"/>
<path d="M1.15381 13.1129C1.22472 6.31482 6.65711 0.881859 13.3625 0.904735C20.0605 0.881859 25.4935 6.31482 25.5707 13.1134C25.4935 19.7182 20.0605 25.1512 13.3625 25.0957C6.65711 25.1512 1.22472 19.7176 1.15381 13.1129V13.1129Z" fill="white"/>
<path d="M10.6488 5.87842C7.83908 7.1463 5.73109 9.85705 5.67505 13.1128C5.73109 16.2462 7.73843 19.0062 10.6488 20.1213V5.87842ZM16.0749 20.1219C18.9784 19.0067 20.9851 16.2462 21.0486 13.1134C20.9851 9.78728 18.9778 7.02677 16.0749 5.87899V20.1219Z" fill="#5E5E5E"/>
</svg>
