<svg width="40" height="21" viewBox="0 0 40 21" fill="none" xmlns="http://www.w3.org/2000/svg">
<path d="M1.24801 16.5784C1.06917 16.2896 0.830722 15.8281 0.683443 15.4865C-0.175686 13.4858 -0.214259 11.4146 0.508111 9.42799C1.30412 7.24764 2.826 5.58157 4.79323 4.72915C7.26542 3.66188 9.9971 3.8697 12.3676 5.28216C13.872 6.14867 14.938 7.48717 15.748 9.3822C15.8497 9.62524 15.9409 9.88238 16.032 10.1043L1.24801 16.5784ZM6.18538 7.94507C4.42855 8.70238 3.52383 10.3579 3.71319 12.2952L11.1473 9.07928C9.86736 7.5717 8.20521 7.07153 6.18538 7.94507V7.94507ZM12.073 14.9405C12.0695 14.9405 12.0695 14.944 12.0695 14.944L11.9152 14.8383C11.4699 15.5604 10.7791 16.1487 9.90593 16.5291C8.24378 17.2547 6.70436 17.068 5.59626 16.0923L5.49456 16.2473C5.49456 16.2473 5.49457 16.2438 5.49106 16.2438L3.60448 19.0793C4.07437 19.4069 4.57582 19.6816 5.10182 19.9035C7.18477 20.7735 9.31681 20.7313 11.4173 19.8155C12.9357 19.1532 14.1279 18.1458 14.9415 16.8672L12.073 14.9405ZM21.1973 0.55867V16.3177L23.638 17.311L22.2528 20.5587L19.5597 19.4315C18.9566 19.1673 18.5428 18.7658 18.2342 18.3114C17.9362 17.85 17.7152 17.2124 17.7152 16.36V0.55867H21.1973ZM27.5163 12.3058C27.5163 10.9637 28.1089 9.75909 29.0417 8.9419L26.538 6.1381C24.8408 7.64567 23.7712 9.84715 23.7712 12.2987C23.7677 14.7538 24.8372 16.9588 26.531 18.4664L29.0312 15.6626C28.1019 14.8419 27.5163 13.6443 27.5163 12.3058V12.3058ZM31.9628 16.7756C31.4718 16.7756 30.9949 16.6911 30.5531 16.5432L29.3573 20.1113C30.1744 20.3861 31.0475 20.5375 31.9593 20.5375C35.9218 20.5411 39.2285 17.7161 39.9965 13.9648L36.3215 13.211C35.9042 15.2505 34.1123 16.7792 31.9628 16.7756V16.7756ZM31.9733 4.07399C31.0651 4.07399 30.1919 4.22193 29.3748 4.49315L30.5601 8.06483C31.0054 7.91689 31.4788 7.83588 31.9698 7.83588C34.1229 7.8394 35.9183 9.37515 36.325 11.4181L40 10.6714C39.2461 6.91302 35.9393 4.07751 31.9733 4.07399V4.07399Z" fill="white"/>
</svg>
