<svg width="72" height="30" viewBox="0 0 72 30" fill="none" xmlns="http://www.w3.org/2000/svg">
<path d="M15.5543 3.83654C15.9321 3.38342 16.4187 1.31976 15.8628 0.460575C15.6867 0.188579 15.3923 0.109633 14.9815 0.230587C14.6005 0.342602 14.3813 0.568124 14.2325 0.921153C13.9933 1.48868 13.7738 3.20079 14.1444 3.83684C14.5054 4.45591 15.3139 4.12463 15.5543 3.83654V3.83654ZM10.1786 0.460575C9.90794 3.51867 9.60306 6.51718 9.29731 9.5142C7.33438 9.55025 5.3302 9.68282 3.4369 9.43734C3.79448 6.50526 4.05095 3.39682 4.40631 0.460575H2.29127C1.53418 7.94002 0.845366 15.5389 0 22.8646H2.15918C2.49777 19.1071 2.81464 15.3107 3.26067 11.7393C5.10162 11.6604 7.30803 11.5227 9.07712 11.8162C8.71235 15.5291 8.27162 19.1088 7.93149 22.8646H10.0907C10.7846 15.2747 11.5154 7.74965 12.3821 0.460575H10.1786V0.460575ZM40.7146 6.90566C39.0347 5.72413 37.7138 7.72075 37.1015 9.59106C37.2404 8.75899 37.2976 7.78451 37.4101 6.90566H35.7357C35.3262 12.4335 34.723 17.6231 34.1495 22.8646H36.0443C36.3098 19.7535 36.4245 15.5595 37.0135 12.5833C37.4844 10.2051 38.7166 8.17895 40.4946 9.28421C40.5192 8.40685 40.6635 7.73714 40.7146 6.90566V6.90566ZM41.772 19.1053C41.5973 18.3194 41.5523 17.0222 41.5959 16.0358C41.6938 13.8191 42.1578 11.12 42.8738 9.89791C43.8619 8.21142 45.8125 8.49057 47.3684 9.43764C47.4165 8.52453 47.5219 7.71003 47.5887 6.8291C45.0371 6.10338 42.6158 6.55501 41.3319 8.90079C40.0749 11.1971 39.2513 16.475 39.8335 19.7958C40.5151 23.6818 43.5719 23.893 46.0465 22.4047C46.156 21.6235 46.214 20.7527 46.3109 19.9496C44.9584 21.1725 42.373 21.8082 41.772 19.1053V19.1053ZM63.0548 6.98222C61.3801 5.52423 59.9859 7.97071 59.4417 9.43734C59.5967 8.68481 59.6056 7.67696 59.75 6.90536H58.0757C57.6242 12.3852 57.0801 17.7036 56.4455 22.8643H58.3843C58.3965 20.7492 58.6351 19.1845 58.8247 17.1104C59.2299 12.681 59.8249 7.82383 62.7908 9.28391C62.8888 8.53496 62.9297 7.6853 63.0548 6.98222ZM13.6155 6.90566C13.5642 6.91847 13.5676 7.02691 13.5714 7.13565C13.1539 12.5723 12.5888 17.7524 11.9852 22.8643H13.8798C14.3351 17.3911 14.8566 12.0337 15.5102 6.90536L13.6155 6.90566V6.90566ZM30.2715 6.59881C28.9024 6.78262 27.7451 7.46842 26.9227 8.97736C25.9139 10.8277 25.0972 14.919 25.3365 18.645C25.678 23.9604 29.4788 23.7694 32.5188 22.4812C32.5706 21.5482 32.7003 20.7506 32.7831 19.8724C31.5309 20.6884 29.3565 21.8273 28.0682 20.4098C27.0957 19.3388 27.09 16.6281 27.4072 14.2716C29.4504 14.1584 31.574 14.1798 33.6201 14.2716C33.7498 12.6015 34.1212 10.7806 33.7963 9.13108C33.3679 6.95333 31.8332 6.38908 30.2715 6.59881ZM32.0781 12.4299H27.6274C27.7684 10.6484 28.6889 8.69017 30.1392 8.59364C31.5042 8.50278 32.4815 9.46624 32.0781 12.4299V12.4299ZM23.0892 6.90566C21.4856 5.8567 19.5312 7.10884 18.6838 8.2999C18.6868 8.35233 18.6636 8.35948 18.6386 8.36336C18.653 8.3422 18.6687 8.32105 18.6838 8.2999C18.6836 8.29551 18.6833 8.29113 18.6829 8.28679C18.6971 7.77468 18.8006 7.41778 18.815 6.90566H17.1847C16.5053 14.7763 15.6996 22.4267 14.8494 30H16.7441C17.0184 27.0506 17.1994 23.9389 17.5814 21.1767C18.0141 24.0819 20.8395 23.5269 22.0319 22.4044C24.4917 20.0878 26.3891 9.06375 23.0892 6.90566V6.90566ZM21.5911 19.8724C20.5774 21.7418 18.0853 21.7138 17.8897 18.5678C17.8047 17.1992 18.0974 15.7642 18.2425 14.3482C18.3888 12.9149 18.4944 11.5397 18.6388 10.2816C19.6373 8.15869 22.5713 7.90218 22.869 11.4325C23.1272 14.4974 22.4305 18.3241 21.5911 19.8724V19.8724ZM70.1048 0.000297751C69.9424 2.47954 69.7253 4.86375 69.4441 7.13565C64.7963 4.57388 61.9461 10.5283 61.9974 17.8776C62.0075 19.2989 62.148 20.7083 62.6582 21.7138C63.5383 23.4459 66.0571 23.8609 67.3292 22.4041C67.5752 22.1222 67.8269 21.6092 67.9899 21.2535C68.1126 20.9857 68.3071 20.2841 68.3426 20.4861C68.2755 21.2645 68.1756 21.9861 68.1665 22.8643H69.885C70.2164 14.5919 71.2402 7.52622 72 0H70.105V0.000297751H70.1048ZM65.8749 21.0998C64.5994 21.1475 63.9652 19.7729 63.9359 17.4938C63.8851 13.5024 64.8906 9.06792 66.9324 8.67021C67.883 8.4852 68.5713 8.87011 69.2678 9.28421C68.6283 13.7678 68.8591 20.9884 65.8749 21.0998V21.0998ZM49.5272 6.90566C49.434 7.81728 49.2908 8.6422 49.1748 9.5142C50.2929 9.02592 53.7744 7.5292 54.1099 10.1279C54.2213 10.9913 54.0292 11.9085 53.8896 12.5833C50.7415 12.0641 48.1754 12.9748 47.5003 16.8798C47.0483 19.4955 47.5509 22.0695 48.5138 22.7881C50.3683 24.1716 52.624 22.5867 53.4049 20.4098C53.3238 21.1633 53.2469 21.925 53.2729 22.8646H54.9031C54.9206 20.1459 55.1478 17.9452 55.3878 15.4987C55.5924 13.4154 55.9776 11.3529 55.9167 9.5142C55.7764 5.30318 51.7699 6.79275 49.5272 6.90566V6.90566ZM52.6117 19.7955C51.6352 21.46 48.8944 21.9328 49.1748 17.9541C49.4075 14.6497 51.4739 13.9475 53.713 14.4244C53.5467 16.2322 53.3557 18.5273 52.6117 19.7955V19.7955Z" fill="white"/>
</svg>
