<svg width="54" height="34" viewBox="0 0 54 34" fill="none" xmlns="http://www.w3.org/2000/svg">
<path d="M40.6763 20.1019H44.5732C44.6845 20.1019 44.9443 20.0716 45.0556 20.0716C45.7979 19.9503 46.4288 19.4046 46.4288 18.6466C46.4288 17.9189 45.7979 17.3731 45.0556 17.2215C44.9443 17.1912 44.7216 17.1912 44.5732 17.1912H40.6763V20.1019Z" fill="url(#paint0_linear_2022_201)"/>
<path d="M44.1282 0C40.4168 0 37.3735 2.45589 37.3735 5.51817V11.2486H46.9117C47.1343 11.2486 47.3941 11.2486 47.5797 11.2789C49.7323 11.3699 51.3281 12.2794 51.3281 13.8561C51.3281 15.0992 50.2518 16.1604 48.2477 16.3726V16.4332C50.4374 16.5545 52.1075 17.5551 52.1075 19.1014C52.1075 20.7689 50.2518 21.8604 47.8024 21.8604H37.3364V33.0787H47.2457C50.957 33.0787 54.0003 30.6228 54.0003 27.5605V0H44.1282Z" fill="url(#paint1_linear_2022_201)"/>
<path d="M45.9464 14.2199C45.9464 13.4923 45.3154 13.0071 44.5732 12.9162C44.4989 12.9162 44.3134 12.8859 44.202 12.8859H40.6763V15.554H44.202C44.3134 15.554 44.5361 15.554 44.5732 15.5237C45.3154 15.4327 45.9464 14.9476 45.9464 14.2199V14.2199Z" fill="url(#paint2_linear_2022_201)"/>
<path d="M6.79173 0C3.0804 0 0.0371134 2.45589 0.0371134 5.51817V19.1317C1.92989 19.8897 3.89689 20.3748 5.8639 20.3748C8.20203 20.3748 9.46389 19.2226 9.46389 17.646V11.2183H15.2536V17.6157C15.2536 20.1019 13.3608 22.1333 6.94018 22.1333C3.04329 22.1333 0 21.436 0 21.436V33.0484H9.90924C13.6206 33.0484 16.6639 30.5925 16.6639 27.5302V0H6.79173Z" fill="url(#paint3_linear_2022_201)"/>
<path d="M25.4597 0C21.7484 0 18.7051 2.45589 18.7051 5.51817V12.7342C20.4123 11.5518 23.3814 10.7938 28.169 10.9757C30.7298 11.0667 33.4762 11.6427 33.4762 11.6427V13.9773C32.103 13.4013 30.47 12.8858 28.3545 12.7646C24.7174 12.5523 22.5277 14.0077 22.5277 16.5545C22.5277 19.1317 24.7174 20.587 28.3545 20.3445C30.47 20.2232 32.103 19.6774 33.4762 19.1317V21.4663C33.4762 21.4663 30.7669 22.0424 28.169 22.1333C23.3814 22.3152 20.4123 21.5572 18.7051 20.3748V33.109H28.6143C32.3257 33.109 35.3689 30.6531 35.3689 27.5909V0H25.4597Z" fill="url(#paint4_linear_2022_201)"/>
<defs>
<linearGradient id="paint0_linear_2022_201" x1="37.3669" y1="18.6502" x2="54.0448" y2="18.6502" gradientUnits="userSpaceOnUse">
<stop stop-color="white"/>
<stop offset="0.229" stop-color="white"/>
<stop offset="0.743" stop-color="#FFF5F5"/>
<stop offset="0.817708" stop-color="white"/>
<stop offset="1" stop-color="white"/>
</linearGradient>
<linearGradient id="paint1_linear_2022_201" x1="37.3669" y1="16.526" x2="54.0459" y2="16.526" gradientUnits="userSpaceOnUse">
<stop stop-color="white"/>
<stop offset="0.229" stop-color="white"/>
<stop offset="0.743" stop-color="white"/>
<stop offset="1" stop-color="white"/>
</linearGradient>
<linearGradient id="paint2_linear_2022_201" x1="37.3665" y1="14.216" x2="54.0448" y2="14.216" gradientUnits="userSpaceOnUse">
<stop stop-color="white"/>
<stop offset="0.229" stop-color="white"/>
<stop offset="0.743" stop-color="white"/>
<stop offset="1" stop-color="white"/>
</linearGradient>
<linearGradient id="paint3_linear_2022_201" x1="0.0293195" y1="16.526" x2="16.9652" y2="16.526" gradientUnits="userSpaceOnUse">
<stop stop-color="white"/>
<stop offset="0.475" stop-color="white"/>
<stop offset="0.826" stop-color="white"/>
<stop offset="1" stop-color="white"/>
</linearGradient>
<linearGradient id="paint4_linear_2022_201" x1="18.609" y1="16.526" x2="35.0579" y2="16.526" gradientUnits="userSpaceOnUse">
<stop stop-color="white"/>
<stop offset="0.173" stop-color="white"/>
<stop offset="0.573" stop-color="white"/>
<stop offset="0.859" stop-color="white"/>
<stop offset="1" stop-color="white"/>
</linearGradient>
</defs>
</svg>
