<svg width="38" height="24" viewBox="0 0 38 24" fill="none" xmlns="http://www.w3.org/2000/svg">
<path d="M24.4265 20.7323H14.3647V2.6499H24.4267L24.4265 20.7323Z" fill="#EEEEEE"/>
<path d="M37.9999 11.6914C37.9999 18.0428 32.852 23.1914 26.5014 23.1914C23.9231 23.1952 21.4189 22.3288 19.394 20.7326C22.0692 18.6269 23.7866 15.3596 23.7866 11.6914C23.7866 8.02321 22.0692 4.75592 19.394 2.65021C21.4188 1.054 23.9229 0.187676 26.5012 0.191418C32.8518 0.191418 37.9997 5.34006 37.9997 11.6914" fill="white"/>
<path d="M15.0025 11.6914C15.0025 8.0234 16.7199 4.75592 19.3943 2.65021C17.3699 1.05395 14.8661 0.18761 12.2881 0.191419C5.93745 0.191419 0.789551 5.34006 0.789551 11.6914C0.789551 18.0428 5.93745 23.1914 12.2881 23.1914C14.8661 23.1952 17.3701 22.3289 19.3945 20.7326C16.7203 18.6273 15.0025 15.3596 15.0025 11.6914Z" fill="#9E9E9E"/>
</svg>
