<svg width="52" height="34" viewBox="0 0 52 34" fill="none" xmlns="http://www.w3.org/2000/svg">
<path fill-rule="evenodd" clip-rule="evenodd" d="M26 28.973C27.6147 27.409 28.9037 25.504 29.7843 23.3801C30.665 21.2563 31.1179 18.9604 31.1139 16.6399C31.1179 14.3193 30.6651 12.0234 29.7844 9.89954C28.9038 7.77566 27.6147 5.87066 26 4.3067C23.2389 1.63073 19.5762 0 15.5568 0C6.96528 0 0 7.44982 0 16.6399C0 25.8296 6.96528 33.2797 15.5568 33.2797C19.5762 33.2797 23.2392 31.649 26 28.973Z" fill="white"/>
<path fill-rule="evenodd" clip-rule="evenodd" d="M36.4435 0C32.4241 0 28.7608 1.63073 26.0003 4.3067C25.4373 4.85287 24.9124 5.44166 24.4296 6.06845H27.5698C28.001 6.6279 28.3974 7.21649 28.7567 7.8305H23.2436C22.9118 8.39829 22.6123 8.9867 22.3467 9.59255H29.6522C29.9037 10.166 30.1241 10.7542 30.3123 11.3543H21.688C21.5071 11.9323 21.3564 12.5205 21.2363 13.1161H30.7643C30.9975 14.2743 31.1149 15.4554 31.1145 16.6399C31.1145 18.4872 30.8321 20.2646 30.3126 21.9251H21.688C21.8756 22.5254 22.0955 23.1137 22.3467 23.6872H29.6522C29.3871 24.293 29.088 24.8815 28.7564 25.4492H23.2436C23.6025 26.0632 23.9986 26.6518 24.4293 27.2112H27.5698C27.0877 27.8383 26.5631 28.4272 26.0003 28.9733C28.7608 31.6493 32.4241 33.28 36.4435 33.28C45.0347 33.28 52.0003 25.8299 52.0003 16.6401C52.0003 7.44982 45.0347 0 36.4435 0Z" fill="#8D8D8D"/>
<path fill-rule="evenodd" clip-rule="evenodd" d="M49.9285 25.9155C49.9285 25.6186 50.1533 25.3778 50.4313 25.3778C50.7087 25.3778 50.9335 25.6186 50.9335 25.9155C50.9335 26.2118 50.7087 26.4526 50.4313 26.4526C50.2975 26.4521 50.1694 26.3953 50.0751 26.2945C49.9809 26.1938 49.9281 26.0575 49.9285 25.9155V25.9155ZM50.431 26.3233C50.6417 26.3233 50.8126 26.1412 50.8126 25.9152C50.8126 25.6891 50.6417 25.5065 50.431 25.5065C50.2198 25.5065 50.0488 25.6891 50.0488 25.9152C50.0488 26.1412 50.22 26.3233 50.431 26.3233ZM50.3632 26.151H50.2601V25.6782H50.4468C50.4855 25.6782 50.5249 25.6794 50.5591 25.7024C50.5769 25.7157 50.5913 25.7334 50.6011 25.754C50.611 25.7746 50.6159 25.7974 50.6155 25.8205C50.6155 25.8736 50.5864 25.9237 50.5391 25.9426L50.6206 26.1507H50.506L50.4388 25.9639H50.3635V26.151V25.8836H50.4204C50.441 25.8836 50.4643 25.8848 50.483 25.8739C50.4912 25.8678 50.4979 25.8597 50.5025 25.8502C50.5071 25.8408 50.5093 25.8302 50.5091 25.8196C50.5088 25.8101 50.5063 25.8008 50.502 25.7925C50.4976 25.7842 50.4915 25.7771 50.4841 25.7718C50.4663 25.7603 50.4374 25.7632 50.4179 25.7632H50.3637V26.151H50.3632Z" fill="#8D8D8D"/>
<path fill-rule="evenodd" clip-rule="evenodd" d="M46.639 20.2461C46.639 19.9492 46.8639 19.7084 47.1413 19.7084C47.4187 19.7084 47.6435 19.9492 47.6435 20.2461C47.6435 20.5429 47.4187 20.7831 47.1413 20.7831C46.8639 20.7831 46.639 20.5426 46.639 20.2461ZM47.141 20.6539C47.3517 20.6539 47.5226 20.4712 47.5226 20.2458C47.5226 20.0197 47.3517 19.8371 47.141 19.8371C46.9298 19.8371 46.7594 20.0197 46.7594 20.2458C46.7594 20.4712 46.93 20.6539 47.141 20.6539ZM47.0732 20.4816H46.9701V20.0094H47.1568C47.1955 20.0094 47.2355 20.01 47.2691 20.0336C47.2869 20.0468 47.3013 20.0644 47.3111 20.0848C47.321 20.1053 47.3259 20.1281 47.3255 20.151C47.3255 20.2047 47.2966 20.2543 47.2491 20.2732L47.3306 20.4813H47.2166L47.1488 20.2945H47.0735V20.4816V20.2142H47.1304C47.1516 20.2142 47.1749 20.216 47.193 20.205C47.2011 20.1989 47.2078 20.1908 47.2123 20.1813C47.2169 20.1719 47.2192 20.1614 47.2191 20.1507C47.2189 20.1411 47.2165 20.1317 47.2122 20.1233C47.2078 20.1149 47.2016 20.1077 47.1941 20.1023C47.1763 20.0914 47.1474 20.0938 47.1285 20.0938H47.0737V20.4816H47.0732ZM13.6137 20.7831H11.6776L12.8283 14.298L10.1789 20.7831H8.41339L8.0907 14.3352L6.93639 20.7831H5.17896L6.68069 12.3471H9.70194L9.86176 17.5698L11.9919 12.3471H15.1402L13.6137 20.7831V20.7831ZM35.2519 20.699C34.7222 20.8546 34.308 20.9215 33.8606 20.9215C32.87 20.9215 32.3291 20.3901 32.3291 19.4151C32.3291 19.2221 32.3491 19.0167 32.3861 18.7995L32.5039 18.1287L32.5945 17.5857L33.492 12.3468H35.4176L35.1385 13.9223H36.1266L35.8612 15.5903H34.8689L34.3586 18.4527C34.3397 18.5462 34.3286 18.6413 34.3256 18.7369C34.3256 19.0913 34.5259 19.2454 34.9862 19.2454C35.2066 19.2454 35.3776 19.2241 35.5085 19.1813L35.2519 20.699ZM40.907 13.9787C40.7447 13.9102 40.7066 13.9102 40.6877 13.9046C40.5851 13.8804 40.5304 13.8663 40.5209 13.8645C40.4566 13.8526 40.3914 13.8468 40.3261 13.8474C39.6904 13.8474 39.2321 14.1502 38.6395 14.9614L38.8105 13.9218H37.0569L35.8768 20.7829H37.8143C38.5075 16.5868 38.8043 15.852 39.7338 15.852C39.8038 15.852 39.8847 15.8579 39.9787 15.8694L40.2049 15.9187L40.907 13.9787V13.9787ZM27.5765 16.0899C27.5765 16.9566 28.0332 17.5536 29.0682 18.0021C29.8615 18.3468 29.9841 18.4477 29.9841 18.7593C29.9841 19.1864 29.6344 19.3791 28.8598 19.3791C28.275 19.3791 27.7316 19.295 27.1043 19.1076L26.8355 20.6902L26.9222 20.7058L27.2811 20.7761C27.3967 20.7973 27.5671 20.8177 27.793 20.836C28.2589 20.8746 28.6194 20.8929 28.8734 20.8929C30.9402 20.8929 31.8949 20.1684 31.8949 18.6035C31.8949 17.6619 31.4958 17.1097 30.5144 16.6939C29.6931 16.3466 29.598 16.2696 29.598 15.9494C29.598 15.5796 29.9238 15.3896 30.5566 15.3896C30.9416 15.3896 31.4663 15.4282 31.9641 15.4926L32.2432 13.9043C31.7362 13.8306 30.9669 13.7701 30.5197 13.7701C28.3284 13.7704 27.5698 14.8245 27.5765 16.0899V16.0899ZM19.908 20.7831H18.299L18.3365 20.072C17.8465 20.635 17.1934 20.9018 16.3056 20.9018C15.2564 20.9018 14.5362 20.1375 14.5362 19.0279C14.5362 17.3564 15.7872 16.3823 17.9374 16.3823C18.1578 16.3823 18.4377 16.4009 18.7262 16.4351C18.7863 16.2097 18.8027 16.1123 18.8027 15.9895C18.8027 15.5354 18.465 15.3654 17.5608 15.3654C17.008 15.3654 16.3832 15.4398 15.9518 15.5566L15.6836 15.6295L15.5099 15.6738L15.7784 14.1313C16.7436 13.8669 17.3807 13.7668 18.0964 13.7668C19.7605 13.7668 20.6399 14.4639 20.6399 15.7794C20.6399 16.1179 20.6107 16.3749 20.4826 17.1386L20.0779 19.5726L20.0098 20.0094L19.9603 20.3582L19.9272 20.5969L19.908 20.7831V20.7831ZM18.4955 17.7265C18.352 17.7075 18.2074 17.6981 18.0628 17.6982C16.9654 17.6982 16.4096 18.049 16.4096 18.7419C16.4096 19.1689 16.6808 19.4416 17.1041 19.4416C17.8935 19.4419 18.4622 18.741 18.4955 17.7265ZM26.2599 20.635C25.6132 20.8213 24.946 20.9149 24.2759 20.9133C22.1113 20.9115 20.9831 19.8574 20.9831 17.8395C20.9831 15.4843 22.4184 13.7503 24.3668 13.7503C25.9608 13.7503 26.9787 14.7215 26.9787 16.2442C26.9787 16.7497 26.9092 17.2425 26.741 17.9381H22.8912C22.8794 18.0092 22.8732 18.0813 22.8726 18.1535C22.8726 18.9488 23.4465 19.3546 24.5711 19.3546C25.2626 19.3546 25.8877 19.2203 26.5818 18.9205L26.2599 20.635ZM25.2287 16.5526C25.2393 16.4098 25.2448 16.2929 25.2448 16.2026C25.2448 15.6454 24.9055 15.3185 24.329 15.3185C23.7131 15.3185 23.2726 15.757 23.0938 16.5484L25.2287 16.5526ZM46.9256 17.6725C46.6357 19.9548 45.1456 20.967 43.1647 20.967C40.9742 20.967 40.0896 19.5458 40.0896 17.8044C40.0896 15.3728 41.5879 13.7252 43.9021 13.7252C45.9108 13.7252 46.9773 15.08 46.9773 16.8217C46.9773 17.2455 46.9767 17.2735 46.9256 17.6725ZM44.9316 16.7946C44.9316 16.0769 44.6592 15.3993 43.8654 15.3993C42.8773 15.3993 42.265 16.6485 42.265 17.7513C42.265 18.6814 42.6847 19.3065 43.3768 19.2932C43.7965 19.2932 44.6915 18.6817 44.8685 17.6138C44.9099 17.3647 44.9316 17.0914 44.9316 16.7946V16.7946Z" fill="#565656"/>
</svg>
